<svg width="19" height="29" viewBox="0 0 19 29" fill="none" xmlns="http://www.w3.org/2000/svg">
<path d="M1.9458 0.626434H2.08972C2.73734 0.626434 3.24106 0.958178 3.67281 1.58849C3.78074 1.85389 3.8527 2.08611 3.8527 2.21881V8.88686C3.8527 9.28496 4.06857 9.55035 4.50032 9.71622C4.57228 9.71622 4.64424 9.7494 4.68022 9.7494H4.7162C4.93207 9.7494 5.36381 9.58352 6.04742 9.28495C7.23473 8.85369 8.38606 8.65464 9.53739 8.65464C11.912 8.65464 13.9988 9.41765 15.8697 10.9105C16.7332 11.7067 17.2729 12.3038 17.4888 12.6687C18.1364 13.5976 18.5681 14.5597 18.784 15.5881C18.9279 16.1189 18.9999 16.9482 18.9999 18.1093V26.7679C18.9999 27.6967 18.6401 28.2939 17.8845 28.5925C17.6327 28.692 17.3808 28.7252 17.2369 28.7252H17.093C16.4094 28.7252 15.8697 28.3934 15.4739 27.6968C15.366 27.4977 15.294 27.166 15.294 26.7679V17.479C15.294 15.9862 14.7544 14.6924 13.639 13.6308C12.4517 12.5692 11.0845 12.0384 9.50141 12.0384C7.84637 12.0384 6.40721 12.6356 5.18392 13.863C4.24847 14.8583 3.78074 16.0525 3.78074 17.4459V27.0664C3.78074 27.5641 3.52888 27.9953 2.9892 28.3934C2.66538 28.5925 2.34158 28.692 2.01777 28.692H1.87385C1.26221 28.692 0.758498 28.3934 0.362728 27.8294C0.182833 27.5972 0.11087 27.1991 0.11087 26.6683V2.6169C0.11087 1.68802 0.470663 1.09088 1.22622 0.792306C1.51406 0.692783 1.76591 0.626434 1.9458 0.626434Z" fill="white"/>
</svg>
